<svg xmlns="http://www.w3.org/2000/svg" enable-background="new 0 0 24 24" viewBox="0 0 24 24"><path d="M5 11c.6 0 1-.4 1-1V9h2v1c0 .6.4 1 1 1s1-.4 1-1V7c0-1.7-1.3-3-3-3S4 5.3 4 7v3C4 10.6 4.4 11 5 11zM7 6c.6 0 1 .4 1 1H6C6 6.4 6.4 6 7 6zM5 16h1.6l-2.3 2.3C4 18.6 3.9 19 4.1 19.4 4.2 19.8 4.6 20 5 20h4c.6 0 1-.4 1-1s-.4-1-1-1H7.4l2.3-2.3c.3-.3.4-.7.2-1.1C9.8 14.2 9.4 14 9 14H5c-.6 0-1 .4-1 1S4.4 16 5 16zM16.3 18.7c.2.2.5.3.7.3s.5-.1.7-.3l2-2c.4-.4.4-1 0-1.4s-1-.4-1.4 0L18 15.6V6c0-.6-.4-1-1-1s-1 .4-1 1v9.6l-.3-.3c-.4-.4-1-.4-1.4 0s-.4 1 0 1.4L16.3 18.7z"/></svg>