<svg xmlns="http://www.w3.org/2000/svg" enable-background="new 0 0 24 24" viewBox="0 0 24 24"><path d="M5 20c.6 0 1-.4 1-1v-1h2v1c0 .6.4 1 1 1s1-.4 1-1v-3c0-1.7-1.3-3-3-3s-3 1.3-3 3v3C4 19.6 4.4 20 5 20zM7 15c.6 0 1 .4 1 1H6C6 15.4 6.4 15 7 15zM5 7h1.6L4.3 9.3C4 9.6 3.9 10 4.1 10.4 4.2 10.8 4.6 11 5 11h4c.6 0 1-.4 1-1S9.6 9 9 9H7.4l2.3-2.3C10 6.4 10.1 6 9.9 5.6 9.8 5.2 9.4 5 9 5H5C4.4 5 4 5.4 4 6S4.4 7 5 7zM16.3 18.7c.2.2.5.3.7.3s.5-.1.7-.3l2-2c.4-.4.4-1 0-1.4s-1-.4-1.4 0L18 15.6V6c0-.6-.4-1-1-1s-1 .4-1 1v9.6l-.3-.3c-.4-.4-1-.4-1.4 0s-.4 1 0 1.4L16.3 18.7z"/></svg>