<svg xmlns="http://www.w3.org/2000/svg" width="32" height="32" viewBox="0 0 32 32"><g transform="translate(571.995 -1370.362)"><path style="isolation:auto;mix-blend-mode:normal" fill="#34485c" d="m -557.46996,1390.6218 14.897,0 c 0.31742,0 0.57296,0.2556 0.57296,0.573 l 0,8.5944 c 0,0.3174 -0.25554,0.573 -0.57296,0.573 l -14.897,0 c -0.31743,0 -0.57296,-0.2556 -0.57296,-0.573 l 0,-8.5944 c 0,-0.3174 0.25553,-0.573 0.57296,-0.573 z" color="#000" overflow="visible"/><path style="isolation:auto;mix-blend-mode:normal" fill="none" stroke="#576d7e" stroke-dashoffset=".5" stroke-linecap="round" stroke-linejoin="round" d="m -551.93774,1390.8675 0,-2.0053 3.43777,0 0,2.0053" color="#000" overflow="visible"/><path style="isolation:auto;mix-blend-mode:normal" fill="#2b4255" d="m -557.46996,1390.6218 c -0.31743,0 -0.57296,0.2556 -0.57296,0.573 l 0,1.9136 c 0,1.0456 0.89438,1.8868 2.00536,1.8868 l 5.22716,0 1.99865,0 4.80638,0 c 1.11097,0 2.00537,-0.8412 2.00537,-1.8868 l 0,-1.9136 c 0,-0.3174 -0.25554,-0.573 -0.57296,-0.573 z" color="#000" overflow="visible"/><path style="isolation:auto;mix-blend-mode:normal" fill="none" stroke="#34485c" stroke-linecap="round" stroke-linejoin="round" d="m -564.50266,1381.8901 0,-7.664 c 0,-0.2016 0.14003,-0.3639 0.31397,-0.3639 l 0.61006,0 3.07109,0 0.71444,0 c 0.17395,0 0.31398,0.1623 0.31398,0.3639 l 0,7.664" color="#000" overflow="visible"/><path fill="none" stroke="#34485c" d="m -564.70115,1375.5435 5.4205,0"/><rect style="isolation:auto;mix-blend-mode:normal" width="4.606" height=".84" x="-564.294" y="1374.284" fill="#78c8f0" color="#000" overflow="visible"/><rect width="13.995" height="17" x="-568.995" y="1381.362" fill="#f05542" fill-rule="evenodd" style="isolation:auto;mix-blend-mode:normal" color="#000" overflow="visible" rx="1" ry="1"/><path style="isolation:auto;mix-blend-mode:normal" fill="#f17f53" fill-rule="evenodd" stroke="#2b4255" stroke-linecap="round" stroke-linejoin="round" d="m -564.49966,1386.5852 0,-1.8115 c 0,-0.5042 0.41807,-0.9104 0.93738,-0.9104 l 3.12457,0 c 0.51931,0 0.93737,0.4062 0.93737,0.9104 l 0,1.8115" color="#000" overflow="visible"/><path style="isolation:auto;mix-blend-mode:normal" fill="#f17f53" fill-rule="evenodd" stroke="#2b4255" stroke-linejoin="round" d="m -566.48226,1398.3847 0,-7.195 c 0,-0.7303 0.60007,-1.3182 1.34545,-1.3182 l 6.27863,0 c 0.74537,0 1.34544,0.5879 1.34544,1.3182 l 0,7.195" color="#000" overflow="visible"/><path fill="#f17f53" fill-rule="evenodd" stroke="#2b4255" d="M-566.37115 1391.8622l8.74702 0M-559.99752 1391.6298l0 1.7336"/><path fill="none" stroke="#2b4255" d="m -568.99526,1386.8631 13.99523,0"/><circle stroke="#f8b84e" style="isolation:auto;mix-blend-mode:normal" cx="-566.5" cy="1398.862" r="1" fill="#fcd062" fill-rule="evenodd" stroke-linecap="round" stroke-linejoin="round" color="#000" overflow="visible"/><circle cx="-557.5" cy="1398.862" r="1" fill="#fcd062" fill-rule="evenodd" stroke="#f8b84e" style="isolation:auto;mix-blend-mode:normal" stroke-linecap="round" stroke-linejoin="round" color="#000" overflow="visible"/><rect fill-opacity=".976" style="isolation:auto;mix-blend-mode:normal" width="1.719" height="1.146" x="-550.594" y="1394.346" fill="#f8b74e" color="#000" overflow="visible" rx="0" ry="0"/></g></svg>